<?xml version="1.0" encoding="UTF-8"?>
<svg xmlns="http://www.w3.org/2000/svg" xmlns:xlink="http://www.w3.org/1999/xlink" width="300pt" height="52.5pt" viewBox="0 0 300 52.5" version="1.1">
<defs>
<clipPath id="clip1">
  <path d="M 0 0 L 300 0 L 300 52.5 L 0 52.5 Z M 0 0 "/>
</clipPath>
<filter id="alpha" filterUnits="objectBoundingBox" x="0%" y="0%" width="100%" height="100%">
  <feColorMatrix type="matrix" in="SourceGraphic" values="0 0 0 0 1 0 0 0 0 1 0 0 0 0 1 0 0 0 1 0"/>
</filter>
<mask id="mask0">
  <g filter="url(#alpha)">
<rect x="0" y="0" width="300" height="52.5" style="fill:rgb(100%,100%,100%);fill-opacity:0.83;stroke:none;"/>
  </g>
</mask>
<clipPath id="clip2">
  <rect width="300" height="53"/>
</clipPath>
<g id="surface1" clip-path="url(#clip2)">
<path style=" stroke:none;fill-rule:nonzero;fill:rgb(78.039216%,89.411765%,99.607843%);fill-opacity:1;" d="M 27.503906 43.4375 C 28.863281 44.375 33.535156 43.941406 35.730469 43.234375 C 56.875 -7.757813 -39.929688 -0.820313 27.503906 43.4375 Z M 27.503906 43.4375 "/>
</g>
<mask id="mask1">
  <g filter="url(#alpha)">
<rect x="0" y="0" width="300" height="52.5" style="fill:rgb(100%,100%,100%);fill-opacity:0.83;stroke:none;"/>
  </g>
</mask>
<clipPath id="clip3">
  <rect width="300" height="53"/>
</clipPath>
<g id="surface2" clip-path="url(#clip3)">
<path style=" stroke:none;fill-rule:nonzero;fill:rgb(98.823529%,85.490196%,59.607843%);fill-opacity:1;" d="M 27.738281 43.574219 C 29.246094 44.277344 34.6875 44.1875 36.835938 42.589844 C 89.425781 -6.511719 -5.292969 -5.722656 27.738281 43.574219 Z M 27.738281 43.574219 "/>
</g>
</defs>
<g id="surface0">
<g clip-path="url(#clip1)" clip-rule="nonzero">
<use xlink:href="#surface1" mask="url(#mask0)"/>
<use xlink:href="#surface2" mask="url(#mask1)"/>
<path style=" stroke:none;fill-rule:nonzero;fill:rgb(100%,100%,100%);fill-opacity:1;" d="M 58.25 40.554688 C 57.125 40.554688 56.558594 40.578125 56.558594 40.621094 C 56.558594 40.847656 57.929688 40.960938 60.683594 40.960938 C 62.375 40.960938 63.800781 40.976563 64.957031 41.003906 C 62 40.703125 59.765625 40.554688 58.25 40.554688 Z M 99.726563 36.765625 C 100.402344 36.765625 100.730469 37.21875 100.730469 38.109375 C 100.730469 38.921875 100.46875 39.671875 99.9375 40.375 C 99.410156 41.078125 98.847656 41.425781 98.257813 41.425781 C 97.527344 41.425781 97.160156 40.9375 97.160156 39.949219 C 97.160156 39.21875 97.445313 38.507813 98.007813 37.808594 C 98.570313 37.113281 99.140625 36.765625 99.726563 36.765625 Z M 288.359375 29.371094 C 287.421875 29.371094 286.140625 30.671875 284.496094 33.257813 C 282.855469 35.851563 282.027344 37.921875 282.027344 39.476563 C 282.027344 40.148438 282.246094 40.488281 282.667969 40.488281 C 283.335938 40.488281 284.609375 38.835938 286.476563 35.539063 C 288.015625 32.800781 288.785156 30.960938 288.785156 30.023438 C 288.785156 29.589844 288.644531 29.371094 288.359375 29.371094 Z M 233.210938 29.371094 C 232.273438 29.371094 230.984375 30.671875 229.339844 33.257813 C 227.707031 35.851563 226.882813 37.921875 226.882813 39.476563 C 226.882813 40.148438 227.089844 40.488281 227.519531 40.488281 C 228.1875 40.488281 229.460938 38.835938 231.328125 35.539063 C 232.867188 32.800781 233.640625 30.960938 233.640625 30.023438 C 233.640625 29.589844 233.496094 29.371094 233.210938 29.371094 Z M 272.765625 29.328125 C 272.257813 29.328125 271.527344 29.851563 270.585938 30.894531 C 269.648438 31.945313 268.730469 33.09375 267.847656 34.34375 C 269.144531 33.828125 270.328125 33.085938 271.410156 32.132813 C 272.480469 31.171875 273.023438 30.332031 273.023438 29.597656 C 273.023438 29.417969 272.9375 29.328125 272.765625 29.328125 Z M 168.398438 29.328125 C 167.886719 29.328125 167.160156 29.851563 166.222656 30.894531 C 165.277344 31.945313 164.363281 33.09375 163.476563 34.34375 C 164.773438 33.828125 165.960938 33.085938 167.039063 32.132813 C 168.121094 31.171875 168.652344 30.332031 168.652344 29.597656 C 168.652344 29.417969 168.570313 29.328125 168.398438 29.328125 Z M 90.816406 28.140625 C 91.972656 28.140625 92.550781 29.058594 92.550781 30.894531 C 92.550781 31.511719 92.429688 32.164063 92.195313 32.84375 L 92.046875 33.199219 L 92.1875 33.003906 C 92.617188 31.691406 93.1875 30.550781 93.875 29.589844 C 94.574219 28.621094 95.226563 28.140625 95.828125 28.140625 C 96.417969 28.140625 96.71875 28.496094 96.71875 29.191406 C 96.71875 30.078125 95.871094 31.226563 94.167969 32.640625 C 93.863281 32.898438 93.496094 33.199219 93.058594 33.542969 L 92.953125 33.65625 C 92.835938 34.21875 92.765625 34.703125 92.765625 35.109375 C 92.765625 36.0625 93.007813 36.542969 93.488281 36.542969 C 94.257813 36.542969 95.136719 35.636719 96.121094 33.8125 C 96.425781 33.363281 96.667969 33.136719 96.839844 33.136719 C 97.148438 33.136719 97.296875 33.332031 97.296875 33.722656 C 97.296875 33.960938 96.847656 34.660156 95.933594 35.828125 C 95.160156 37.082031 94.328125 37.703125 93.449219 37.703125 C 92.363281 37.703125 91.8125 36.902344 91.8125 35.289063 C 91.8125 34.824219 91.882813 34.441406 92.015625 34.140625 C 91.695313 34.878906 91.328125 35.628906 90.898438 36.398438 C 90.472656 37.164063 89.660156 38.875 88.476563 41.515625 C 87.710938 41.453125 87.292969 41.425781 87.210938 41.425781 C 87.179688 41.425781 86.714844 41.453125 85.828125 41.515625 L 88.679688 34.886719 C 90.050781 31.960938 90.734375 30.183594 90.734375 29.550781 C 90.734375 29.433594 90.71875 29.371094 90.683594 29.371094 C 90.171875 29.371094 89.097656 30.933594 87.472656 34.058594 C 87.320313 34.351563 87.121094 34.503906 86.871094 34.503906 C 86.640625 34.425781 86.527344 34.21875 86.527344 33.878906 C 86.550781 33.683594 86.601563 33.542969 86.683594 33.453125 L 87.058594 32.753906 C 88.820313 29.679688 90.082031 28.140625 90.816406 28.140625 Z M 136.820313 26.84375 C 134.464844 26.84375 132.148438 28.136719 129.882813 30.714844 C 127.613281 33.300781 126.480469 35.914063 126.480469 38.558594 C 126.480469 39.296875 126.628906 39.984375 126.929688 40.644531 C 127.425781 40.765625 127.957031 40.824219 128.511719 40.824219 C 131.136719 40.824219 133.695313 39.640625 136.183594 37.269531 C 138.675781 34.90625 139.917969 32.515625 139.917969 30.113281 C 139.917969 29.183594 139.625 28.414063 139.050781 27.78125 C 138.464844 27.152344 137.722656 26.84375 136.820313 26.84375 Z M 159.238281 23.792969 C 159.710938 23.914063 160.09375 23.972656 160.378906 23.972656 C 160.679688 23.972656 161.128906 23.914063 161.730469 23.792969 L 159.765625 28.140625 L 162.007813 28.140625 L 161.730469 29.371094 L 159.472656 29.371094 L 155.765625 37.683594 C 155.332031 38.640625 155.113281 39.390625 155.113281 39.925781 C 155.113281 40.300781 155.265625 40.488281 155.558594 40.488281 C 156.488281 40.488281 158.144531 38.175781 160.535156 33.566406 C 160.6875 33.28125 160.851563 33.136719 161.03125 33.136719 L 161.285156 33.257813 L 161.902344 32.359375 C 162.597656 31.449219 163.507813 30.601563 164.625 29.800781 C 166.183594 28.699219 167.464844 28.140625 168.464844 28.140625 C 168.964844 28.140625 169.402344 28.34375 169.769531 28.75 C 170.128906 29.148438 170.316406 29.648438 170.316406 30.25 C 170.316406 31.503906 169.738281 32.53125 168.597656 33.339844 C 167.453125 34.140625 165.652344 34.871094 163.199219 35.515625 C 162.515625 36.871094 162.179688 38.019531 162.179688 38.964844 C 162.179688 39.949219 162.585938 40.441406 163.410156 40.441406 C 165.097656 40.441406 167.203125 38.199219 169.746094 33.722656 C 169.957031 33.347656 170.175781 33.160156 170.414063 33.160156 C 170.550781 33.203125 170.648438 33.273438 170.714844 33.371094 L 170.730469 33.429688 L 170.910156 33.429688 C 172.769531 29.90625 174.058594 28.140625 174.773438 28.140625 C 175.273438 28.140625 175.695313 28.425781 176.03125 28.988281 C 176.371094 29.558594 176.535156 30.210938 176.535156 30.941406 L 176.308594 32.140625 L 176.59375 31.503906 C 177.015625 30.683594 177.417969 30.039063 177.800781 29.566406 C 178.566406 28.613281 179.300781 28.140625 180.007813 28.140625 C 180.621094 28.140625 181.132813 28.457031 181.535156 29.09375 C 181.941406 29.726563 182.144531 30.496094 182.144531 31.390625 C 182.144531 32.476563 181.597656 34.097656 180.5 36.226563 C 179.472656 38.261719 178.964844 39.519531 178.964844 40.015625 C 178.964844 40.328125 179.078125 40.488281 179.308594 40.488281 C 180.210938 40.488281 181.859375 38.191406 184.265625 33.609375 C 184.378906 33.296875 184.535156 33.136719 184.738281 33.136719 C 185.046875 33.136719 185.203125 33.332031 185.203125 33.722656 C 185.203125 34.148438 184.339844 35.710938 182.625 38.378906 C 181.207031 40.609375 180.050781 41.71875 179.152344 41.71875 C 178.523438 41.71875 178.011719 41.410156 177.605469 40.800781 C 177.203125 40.1875 177 39.4375 177 38.558594 C 177 37.808594 177.113281 37.136719 177.335938 36.519531 C 177.570313 35.90625 178.109375 34.816406 178.964844 33.25 C 179.886719 31.382813 180.351563 30.25 180.351563 29.84375 C 180.351563 29.53125 180.214844 29.371094 179.953125 29.371094 C 178.433594 29.371094 175.933594 33.421875 172.46875 41.515625 C 171.75 41.453125 171.34375 41.425781 171.253906 41.425781 C 170.886719 41.425781 170.398438 41.453125 169.785156 41.515625 L 172.5 35.289063 C 173.984375 32.199219 174.726563 30.300781 174.726563 29.597656 C 174.726563 29.449219 174.695313 29.371094 174.636719 29.371094 C 174.179688 29.371094 173.136719 30.917969 171.496094 34.015625 C 171.335938 34.292969 171.171875 34.457031 171 34.503906 C 170.855469 34.503906 170.746094 34.457031 170.660156 34.367188 L 170.625 34.238281 L 170.414063 34.613281 L 169.746094 35.695313 C 167.277344 39.707031 165.132813 41.71875 163.320313 41.71875 C 162.417969 41.71875 161.667969 41.296875 161.0625 40.449219 C 160.460938 39.609375 160.160156 38.558594 160.160156 37.308594 C 160.160156 36.949219 160.183594 36.59375 160.230469 36.25 L 160.257813 36.09375 L 159.695313 37.089844 C 157.867188 40.171875 156.425781 41.71875 155.371094 41.71875 C 154.730469 41.71875 154.207031 41.417969 153.777344 40.824219 C 153.359375 40.226563 153.148438 39.484375 153.148438 38.605469 C 153.148438 37.621094 153.449219 36.648438 154.058594 35.695313 L 154.417969 34.898438 L 153.5625 36.363281 C 152.5625 38.027344 151.738281 39.257813 151.101563 40.039063 C 150.1875 41.164063 149.339844 41.71875 148.550781 41.71875 C 147.765625 41.71875 147.082031 41.328125 146.511719 40.539063 C 145.933594 39.761719 145.640625 38.851563 145.640625 37.816406 C 145.640625 37.359375 145.730469 36.941406 145.902344 36.566406 C 144.71875 40 143.472656 41.71875 142.175781 41.71875 C 141.703125 41.71875 141.3125 41.492188 141.007813 41.035156 C 140.691406 40.578125 140.535156 40.03125 140.535156 39.390625 C 140.535156 38.507813 140.773438 37.691406 141.261719 36.933594 C 141.742188 36.183594 142.28125 35.808594 142.875 35.808594 C 143.722656 35.808594 144.140625 36.324219 144.140625 37.375 C 144.140625 38.476563 143.578125 39.226563 142.460938 39.609375 C 142.132813 39.730469 141.964844 39.917969 141.964844 40.171875 C 141.964844 40.335938 142.0625 40.421875 142.246094 40.421875 C 142.964844 40.421875 143.835938 39.476563 144.863281 37.601563 C 146.558594 34.488281 147.402344 32.058594 147.402344 30.296875 C 147.402344 29.679688 147.203125 29.371094 146.789063 29.371094 C 145.835938 29.371094 144.5 30.910156 142.792969 33.992188 C 142.621094 34.316406 142.410156 34.480469 142.152344 34.480469 C 141.953125 34.34375 141.847656 34.148438 141.847656 33.902344 C 141.847656 33.527344 142.4375 32.46875 143.625 30.738281 C 144.816406 29.003906 145.902344 28.140625 146.894531 28.140625 C 147.683594 28.140625 148.328125 28.496094 148.84375 29.191406 C 149.355469 29.898438 149.609375 30.765625 149.609375 31.816406 L 149.558594 32.378906 L 149.8125 31.757813 C 150.871094 29.351563 151.957031 28.140625 153.066406 28.140625 C 154.167969 28.140625 154.722656 28.898438 154.722656 30.429688 C 154.722656 31.261719 154.507813 32.042969 154.070313 32.769531 C 153.636719 33.488281 153.140625 33.859375 152.570313 33.859375 C 151.785156 33.859375 151.386719 33.324219 151.386719 32.265625 C 151.386719 31.324219 151.851563 30.671875 152.773438 30.316406 C 153.1875 30.152344 153.390625 29.925781 153.390625 29.640625 C 153.390625 29.460938 153.269531 29.371094 153.027344 29.371094 C 152.1875 29.371094 151.101563 30.59375 149.773438 33.046875 C 148.445313 35.5 147.777344 37.5625 147.777344 39.234375 C 147.777344 40.066406 148.070313 40.488281 148.65625 40.488281 C 149.722656 40.488281 151.4375 38.410156 153.800781 34.253906 C 154.09375 33.511719 154.335938 33.136719 154.523438 33.136719 C 154.671875 33.136719 154.785156 33.199219 154.867188 33.308594 L 154.957031 33.714844 L 156.929688 29.371094 L 155.183594 29.371094 L 155.511719 28.140625 L 157.222656 28.140625 L 159.238281 23.792969 Z M 84.015625 17.65625 C 82.738281 19.824219 81.496094 22.621094 80.285156 26.058594 C 78.667969 30.730469 76.980469 34.113281 75.210938 36.183594 C 73.386719 38.304688 70.820313 39.84375 67.515625 40.800781 C 68.738281 40.9375 70.152344 41.003906 71.773438 41.003906 C 76.027344 41.003906 79.46875 38.296875 82.101563 32.890625 C 83.820313 29.378906 84.683594 25.945313 84.683594 22.585938 C 84.683594 20.746094 84.457031 19.105469 84.015625 17.65625 Z M 140.429688 13.847656 C 138.816406 13.847656 137.40625 14.148438 136.207031 14.738281 C 139.011719 15.789063 141.433594 16.316406 143.472656 16.316406 C 144.320313 16.316406 144.742188 16.082031 144.742188 15.617188 C 144.742188 15.242188 144.3125 14.851563 143.464844 14.453125 C 142.621094 14.050781 141.605469 13.847656 140.429688 13.847656 Z M 125.96875 12.234375 C 128.089844 12.234375 130.867188 12.796875 134.308594 13.914063 C 135.863281 12.910156 137.699219 12.414063 139.835938 12.414063 C 141.417969 12.414063 142.808594 12.714844 144.007813 13.308594 C 145.199219 13.90625 145.800781 14.6875 145.800781 15.664063 C 145.800781 16.960938 144.980469 17.613281 143.339844 17.613281 C 142.183594 17.613281 139.574219 16.9375 135.507813 15.59375 C 133.777344 16.90625 132.90625 18.578125 132.90625 20.613281 C 132.90625 21.511719 133.09375 22.089844 133.476563 22.359375 C 134.25 22.269531 134.828125 22.226563 135.214844 22.226563 C 136.640625 22.226563 137.355469 22.5625 137.355469 23.238281 C 137.355469 23.769531 136.917969 24.039063 136.058594 24.039063 C 135.210938 24.039063 134.339844 23.890625 133.4375 23.589844 C 132.238281 23.828125 130.820313 24.460938 129.179688 25.472656 C 125.054688 28.058594 122.992188 31.390625 122.992188 35.46875 C 122.992188 38.066406 123.921875 39.707031 125.78125 40.398438 C 125.363281 39.871094 125.144531 38.972656 125.144531 37.683594 C 125.144531 34.609375 126.328125 31.789063 128.691406 29.230469 C 131.0625 26.664063 133.648438 25.382813 136.460938 25.382813 C 137.796875 25.382813 138.875 25.832031 139.695313 26.71875 C 140.519531 27.609375 140.925781 28.800781 140.925781 30.296875 C 140.925781 33.355469 139.664063 36.09375 137.144531 38.507813 C 134.617188 40.914063 131.789063 42.121094 128.652344 42.121094 C 128 42.121094 127.542969 42.078125 127.28125 41.988281 C 128.265625 43.316406 129.773438 43.984375 131.8125 43.984375 C 133.101563 43.984375 134.160156 43.726563 134.976563 43.21875 L 135.300781 43.148438 C 135.597656 43.269531 135.75 43.480469 135.75 43.78125 C 135.75 44.230469 135.269531 44.582031 134.316406 44.84375 C 133.363281 45.109375 132.53125 45.234375 131.8125 45.234375 C 129.308594 45.234375 127.417969 44.09375 126.140625 41.808594 C 124.433594 41.296875 123.050781 40.40625 122.007813 39.121094 C 120.964844 37.832031 120.449219 36.316406 120.449219 34.570313 C 120.449219 32.289063 121.152344 30.167969 122.5625 28.210938 C 123.980469 26.253906 125.78125 24.820313 127.972656 23.90625 C 129.53125 23.222656 131.105469 22.800781 132.703125 22.652344 C 131.4375 22.308594 130.808594 21.28125 130.808594 19.5625 C 130.808594 17.425781 131.730469 15.84375 133.574219 14.808594 C 131.113281 14.171875 129.042969 13.847656 127.371094 13.847656 C 124.078125 13.847656 121.28125 14.914063 118.988281 17.050781 C 116.683594 19.1875 115.535156 21.746094 115.535156 24.738281 C 115.535156 26.035156 115.820313 27.136719 116.382813 28.039063 C 116.667969 28.496094 116.976563 28.832031 117.308594 29.058594 L 118.003906 29.273438 L 117.710938 28.234375 C 117.710938 27.675781 117.882813 27.210938 118.222656 26.828125 C 118.566406 26.449219 118.964844 26.261719 119.421875 26.261719 C 120.390625 26.261719 120.875 26.875 120.875 28.097656 C 120.875 28.855469 120.628906 29.492188 120.140625 29.988281 C 119.648438 30.488281 119.0625 30.738281 118.378906 30.738281 C 117.203125 30.738281 116.210938 30.070313 115.410156 28.726563 C 114.605469 27.378906 114.210938 25.773438 114.210938 23.90625 C 114.210938 21.128906 115.117188 18.59375 116.9375 16.316406 C 119.097656 13.59375 122.105469 12.234375 125.96875 12.234375 Z M 75.757813 10.261719 C 79.632813 10.261719 82.484375 12.078125 84.308594 15.707031 C 86.953125 12.347656 89.75 10.667969 92.714844 10.667969 C 94.257813 10.667969 95.503906 11.320313 96.464844 12.625 C 97.417969 13.929688 97.898438 15.632813 97.898438 17.726563 C 97.898438 18.496094 97.8125 19.375 97.65625 20.359375 C 97.5 21.332031 97.257813 21.820313 96.9375 21.820313 C 96.644531 21.820313 96.496094 21.632813 96.496094 21.242188 C 96.496094 21.09375 96.507813 20.964844 96.53125 20.859375 C 96.792969 19.960938 96.921875 18.933594 96.921875 17.769531 C 96.921875 16.023438 96.515625 14.621094 95.707031 13.554688 C 94.898438 12.496094 93.832031 11.964844 92.496094 11.964844 C 89.839844 11.964844 87.285156 13.554688 84.839844 16.734375 C 85.8125 19.007813 86.308594 21.511719 86.308594 24.242188 C 86.308594 29.261719 84.839844 33.519531 81.898438 37.015625 C 78.953125 40.511719 75.375 42.257813 71.144531 42.257813 C 69.832031 42.257813 68.078125 42.023438 65.878906 41.558594 C 63.980469 42.023438 62.144531 42.257813 60.351563 42.257813 C 57.121094 42.257813 55.5 41.710938 55.5 40.621094 C 55.5 40.007813 55.910156 39.535156 56.746094 39.199219 C 57.578125 38.859375 58.5 38.695313 59.519531 38.695313 C 60.710938 38.695313 63.074219 39.203125 66.589844 40.21875 C 68.863281 39.429688 70.65625 38.175781 71.976563 36.476563 C 73.289063 34.789063 75.320313 31.074219 78.066406 25.335938 C 79.738281 21.8125 81.554688 18.886719 83.503906 16.554688 C 81.929688 13.226563 79.347656 11.558594 75.757813 11.558594 C 72 11.558594 68.542969 13.511719 65.398438 17.410156 C 63.816406 19.367188 62.550781 21.527344 61.605469 23.882813 C 60.660156 26.246094 60.1875 28.414063 60.1875 30.386719 C 60.1875 31.878906 60.539063 33.0625 61.25 33.949219 C 61.964844 34.824219 62.917969 35.265625 64.101563 35.265625 C 66.1875 35.265625 68.363281 33.773438 70.632813 30.78125 C 72.914063 27.796875 74.046875 24.949219 74.046875 22.226563 C 74.046875 21.273438 73.851563 20.507813 73.460938 19.945313 C 73.0625 19.375 72.546875 19.089844 71.910156 19.089844 L 71.480469 19.136719 L 72.441406 20.296875 C 72.441406 20.914063 72.261719 21.445313 71.910156 21.902344 C 71.558594 22.359375 71.136719 22.585938 70.648438 22.585938 C 69.726563 22.585938 69.261719 21.941406 69.261719 20.65625 C 69.261719 19.855469 69.523438 19.164063 70.058594 18.609375 C 70.589844 18.046875 71.21875 17.769531 71.945313 17.769531 C 72.875 17.769531 73.640625 18.183594 74.226563 19 C 74.8125 19.824219 75.113281 20.867188 75.113281 22.136719 C 75.113281 25.269531 73.875 28.464844 71.40625 31.703125 C 68.9375 34.945313 66.5 36.566406 64.101563 36.566406 C 62.414063 36.566406 61.027344 35.828125 59.9375 34.359375 C 58.84375 32.890625 58.304688 31.007813 58.304688 28.726563 C 58.304688 23.925781 60.089844 19.652344 63.660156 15.894531 C 67.238281 12.136719 71.265625 10.261719 75.757813 10.261719 Z M 234.613281 10.148438 C 236.617188 10.148438 238.273438 10.929688 239.585938 12.484375 C 240.898438 14.035156 241.550781 16 241.550781 18.371094 C 241.550781 18.96875 241.492188 19.609375 241.371094 20.289063 C 241.25 20.964844 241.042969 21.308594 240.75 21.308594 C 240.441406 21.308594 240.285156 21.101563 240.285156 20.679688 C 240.300781 20.589844 240.308594 20.515625 240.320313 20.453125 C 240.496094 19.953125 240.578125 19.285156 240.578125 18.460938 C 240.578125 16.621094 240.007813 15.054688 238.867188 13.75 C 237.726563 12.4375 236.332031 11.785156 234.683594 11.785156 L 233.292969 12.234375 L 233.332031 12.28125 C 233.332031 12.535156 233.175781 12.753906 232.867188 12.925781 C 231.457031 13.945313 230.257813 15.300781 229.265625 17.003906 C 228.285156 18.707031 227.136719 21.363281 225.839844 24.960938 C 223.933594 30.25 222.222656 34.066406 220.710938 36.421875 C 219.195313 38.769531 217.394531 40.261719 215.308594 40.890625 C 216.082031 40.90625 216.75 40.914063 217.289063 40.914063 C 218.96875 40.914063 220.3125 40.441406 221.316406 39.496094 C 222.328125 38.558594 223.777344 36.414063 225.667969 33.070313 C 225.882813 32.710938 226.09375 32.53125 226.304688 32.53125 C 226.433594 32.574219 226.527344 32.648438 226.597656 32.746094 L 226.613281 32.792969 L 226.902344 32.394531 C 227.691406 31.421875 228.726563 30.496094 229.996094 29.621094 C 231.222656 28.636719 232.289063 28.140625 233.175781 28.140625 C 233.648438 28.140625 234 28.292969 234.238281 28.59375 L 234.5625 29.808594 L 234.777344 28.324219 C 235.273438 28.425781 235.632813 28.480469 235.875 28.480469 C 236.160156 28.480469 236.675781 28.425781 237.433594 28.324219 L 234.066406 35.785156 C 233.242188 37.855469 232.828125 39.226563 232.828125 39.878906 C 232.828125 40.285156 232.933594 40.488281 233.136719 40.488281 C 233.496094 40.488281 234.15625 39.828125 235.132813 38.507813 C 236.105469 37.179688 237.097656 35.546875 238.101563 33.585938 C 238.238281 33.289063 238.402344 33.136719 238.597656 33.136719 C 238.746094 33.136719 238.867188 33.191406 238.941406 33.28125 L 238.972656 33.40625 L 239.136719 33.085938 C 239.347656 32.597656 239.550781 32.074219 239.738281 31.503906 L 246.1875 17.410156 C 246.777344 17.53125 247.183594 17.589844 247.402344 17.589844 C 247.625 17.589844 248.113281 17.53125 248.847656 17.410156 C 248.707031 18.128906 248.472656 18.730469 248.167969 19.226563 C 248.007813 19.71875 247.640625 20.558594 247.070313 21.753906 C 246.800781 22.351563 246.351563 23.34375 245.722656 24.714844 L 242.78125 30.941406 L 241.964844 32.785156 L 242.953125 33.003906 C 243.390625 32.71875 244.214844 31.660156 245.429688 29.824219 C 246.171875 28.703125 246.953125 28.140625 247.753906 28.140625 C 248.863281 28.140625 249.417969 28.824219 249.417969 30.203125 C 249.417969 31.023438 249.164063 31.839844 248.660156 32.640625 C 248.160156 33.453125 247.632813 33.859375 247.085938 33.859375 C 246.375 33.859375 246.015625 33.414063 246.015625 32.53125 C 246.015625 31.832031 246.433594 31.128906 247.28125 30.429688 C 247.484375 30.265625 247.589844 30.03125 247.589844 29.734375 C 247.589844 29.671875 247.523438 29.640625 247.402344 29.640625 C 247.019531 29.640625 246.425781 30.210938 245.601563 31.34375 C 244.769531 32.703125 244.101563 33.4375 243.597656 33.542969 C 244.792969 34.066406 245.382813 34.890625 245.382813 36.023438 C 245.382813 36.609375 245.089844 37.683594 244.507813 39.257813 C 244.289063 39.804688 244.183594 40.171875 244.183594 40.351563 C 244.183594 40.441406 244.25 40.488281 244.386719 40.488281 C 245.332031 40.488281 246.972656 38.207031 249.3125 33.65625 C 249.496094 33.308594 249.675781 33.136719 249.863281 33.136719 L 250.214844 33.300781 L 252.472656 28.324219 C 253.0625 28.425781 253.460938 28.480469 253.65625 28.480469 C 253.835938 28.480469 254.332031 28.425781 255.140625 28.324219 L 251.210938 37.328125 C 250.625 38.539063 250.339844 39.40625 250.339844 39.925781 C 250.339844 40.300781 250.453125 40.488281 250.679688 40.488281 C 251.089844 40.488281 251.78125 39.773438 252.757813 38.351563 C 253.730469 36.917969 254.722656 35.09375 255.726563 32.867188 L 257.746094 28.324219 C 258.457031 28.398438 258.90625 28.433594 259.09375 28.433594 C 259.46875 28.433594 259.910156 28.398438 260.421875 28.324219 L 256.800781 36.585938 C 256.050781 38.183594 255.675781 39.273438 255.675781 39.835938 C 255.675781 40.269531 255.847656 40.488281 256.183594 40.488281 C 257.234375 40.488281 258.53125 39.003906 260.085938 36.023438 C 260.015625 35.582031 259.980469 35.199219 259.980469 34.886719 C 259.980469 33.46875 260.316406 31.988281 261 30.453125 C 261.675781 28.90625 262.378906 28.140625 263.105469 28.140625 C 263.609375 28.140625 263.863281 28.523438 263.863281 29.28125 C 263.863281 30.625 262.925781 32.933594 261.058594 36.203125 C 261.238281 36.550781 261.496094 36.722656 261.824219 36.722656 C 262.582031 36.722656 263.542969 35.769531 264.71875 33.859375 C 265.011719 33.378906 265.257813 33.136719 265.453125 33.136719 L 265.671875 33.234375 L 266.273438 32.359375 C 266.96875 31.449219 267.875 30.601563 268.988281 29.800781 C 270.554688 28.699219 271.828125 28.140625 272.835938 28.140625 C 273.335938 28.140625 273.773438 28.34375 274.132813 28.75 C 274.5 29.148438 274.679688 29.648438 274.679688 30.25 C 274.679688 31.503906 274.109375 32.53125 272.960938 33.339844 C 271.820313 34.140625 270.023438 34.871094 267.570313 35.515625 C 266.886719 36.871094 266.542969 38.019531 266.542969 38.964844 C 266.542969 39.949219 266.953125 40.441406 267.773438 40.441406 C 269.460938 40.441406 271.574219 38.199219 274.117188 33.722656 C 274.328125 33.347656 274.542969 33.160156 274.785156 33.160156 L 275.070313 33.371094 L 275.242188 32.980469 C 275.683594 32.003906 276.230469 30.8125 276.871094 29.417969 C 278.910156 24.96875 280.6875 20.996094 282.203125 17.5 C 282.683594 17.621094 283.042969 17.679688 283.28125 17.679688 C 283.679688 17.679688 284.195313 17.589844 284.835938 17.410156 C 280.042969 28.238281 277.246094 34.570313 276.457031 36.398438 C 275.675781 38.230469 275.277344 39.40625 275.277344 39.925781 C 275.277344 40.300781 275.375 40.488281 275.570313 40.488281 C 276.410156 40.488281 278.070313 38.191406 280.542969 33.609375 C 280.65625 33.296875 280.84375 33.136719 281.089844 33.136719 L 281.371094 33.339844 L 282.050781 32.394531 C 282.847656 31.421875 283.875 30.496094 285.140625 29.621094 C 286.371094 28.636719 287.4375 28.140625 288.320313 28.140625 C 288.792969 28.140625 289.152344 28.292969 289.386719 28.59375 L 289.710938 29.808594 L 289.933594 28.324219 C 290.421875 28.425781 290.789063 28.480469 291.023438 28.480469 C 291.308594 28.480469 291.832031 28.425781 292.582031 28.324219 L 289.214844 35.785156 C 288.390625 37.855469 287.984375 39.226563 287.984375 39.878906 C 287.984375 40.285156 288.082031 40.488281 288.292969 40.488281 C 288.644531 40.488281 289.304688 39.828125 290.277344 38.507813 C 291.253906 37.179688 292.246094 35.546875 293.25 33.585938 C 293.382813 33.289063 293.550781 33.136719 293.746094 33.136719 C 294.050781 33.136719 294.203125 33.332031 294.203125 33.722656 C 294.203125 34.136719 293.363281 35.65625 291.675781 38.265625 C 290.21875 40.570313 289.042969 41.71875 288.15625 41.71875 C 287.527344 41.71875 287.015625 41.417969 286.625 40.808594 C 286.230469 40.210938 286.035156 39.453125 286.035156 38.558594 L 286.167969 37.367188 L 285.523438 38.90625 C 285.1875 39.59375 284.847656 40.136719 284.519531 40.53125 C 283.867188 41.320313 283.207031 41.71875 282.546875 41.71875 C 281.828125 41.71875 281.234375 41.328125 280.769531 40.554688 C 280.296875 39.773438 280.0625 38.824219 280.0625 37.683594 C 280.0625 37.308594 280.09375 36.933594 280.148438 36.558594 L 280.246094 36.109375 L 279.6875 37.089844 C 277.859375 40.171875 276.441406 41.71875 275.4375 41.71875 C 274.84375 41.71875 274.355469 41.433594 273.980469 40.855469 C 273.605469 40.285156 273.417969 39.558594 273.417969 38.695313 C 273.417969 37.796875 273.5625 36.953125 273.863281 36.175781 L 273.953125 35.957031 L 273.210938 37.105469 C 271.117188 40.179688 269.277344 41.71875 267.6875 41.71875 C 266.789063 41.71875 266.039063 41.296875 265.433594 40.449219 C 264.832031 39.609375 264.523438 38.558594 264.523438 37.308594 C 264.523438 36.949219 264.546875 36.59375 264.597656 36.25 L 264.710938 35.671875 L 264.695313 35.695313 C 263.625 37.171875 262.671875 37.90625 261.824219 37.90625 C 261.203125 37.90625 260.773438 37.554688 260.542969 36.835938 C 259.722656 38.582031 258.972656 39.835938 258.285156 40.585938 C 257.601563 41.34375 256.890625 41.71875 256.152344 41.71875 C 255.464844 41.71875 254.902344 41.417969 254.453125 40.808594 C 254 40.210938 253.777344 39.46875 253.777344 38.605469 C 253.777344 37.898438 253.925781 37.300781 254.234375 36.789063 C 252.875 40.074219 251.648438 41.71875 250.542969 41.71875 C 249.9375 41.71875 249.441406 41.410156 249.042969 40.800781 C 248.652344 40.1875 248.460938 39.453125 248.460938 38.605469 C 248.460938 38.132813 248.550781 37.585938 248.722656 36.953125 L 248.878906 36.496094 L 248.535156 37.089844 C 246.703125 40.171875 245.25 41.71875 244.183594 41.71875 C 243.597656 41.71875 243.089844 41.460938 242.648438 40.945313 C 242.203125 40.425781 241.980469 39.828125 241.980469 39.144531 C 241.980469 38.589844 242.300781 37.472656 242.953125 35.785156 L 242.96875 35.71875 C 243.171875 35.175781 243.277344 34.808594 243.277344 34.613281 C 243.277344 34.449219 243.195313 34.285156 243.023438 34.121094 C 242.652344 34.375 242.308594 34.503906 241.980469 34.503906 L 241.296875 34.285156 L 240.285156 36.566406 C 239.519531 38.449219 238.925781 39.871094 238.492188 40.847656 L 238.078125 41.605469 C 237.621094 41.515625 237.269531 41.46875 237.007813 41.46875 C 236.789063 41.46875 236.300781 41.515625 235.550781 41.605469 C 235.902344 40.425781 236.210938 39.542969 236.472656 38.964844 L 237.34375 36.976563 L 237.121094 37.335938 C 236.933594 37.628906 236.738281 37.945313 236.527344 38.265625 C 235.0625 40.570313 233.894531 41.71875 233 41.71875 C 232.378906 41.71875 231.871094 41.417969 231.472656 40.808594 C 231.082031 40.210938 230.886719 39.453125 230.886719 38.558594 L 231.023438 37.367188 L 230.375 38.90625 C 230.03125 39.59375 229.703125 40.136719 229.371094 40.53125 C 228.710938 41.320313 228.058594 41.71875 227.398438 41.71875 C 226.679688 41.71875 226.085938 41.328125 225.621094 40.554688 C 225.148438 39.773438 224.917969 38.824219 224.917969 37.683594 C 224.917969 37.308594 224.945313 36.933594 225 36.558594 L 225.082031 36.160156 L 225.007813 36.296875 C 223.671875 38.523438 222.464844 40.050781 221.382813 40.878906 C 220.3125 41.710938 218.976563 42.121094 217.394531 42.121094 C 216.441406 42.121094 215.445313 41.988281 214.402344 41.71875 C 213.660156 42.046875 212.871094 42.210938 212.023438 42.210938 C 211.191406 42.210938 210.777344 41.914063 210.777344 41.3125 C 210.777344 40.628906 211.3125 40.285156 212.382813 40.285156 C 212.863281 40.285156 213.488281 40.359375 214.25 40.511719 L 214.402344 40.511719 C 215.519531 39.984375 216.480469 39.128906 217.28125 37.945313 C 218.085938 36.761719 219.074219 34.710938 220.238281 31.816406 C 222.628906 25.855469 224.527344 21.648438 225.929688 19.179688 C 227.277344 16.789063 229.035156 14.703125 231.171875 12.925781 L 231.214844 12.894531 L 230.542969 13.113281 C 229.140625 13.996094 227.714844 15.324219 226.265625 17.09375 C 225.125 18.484375 224.046875 19.90625 223.019531 21.355469 C 222.398438 22.53125 220.902344 25.164063 218.558594 29.238281 C 215.046875 35.351563 212.144531 39.175781 209.855469 40.710938 C 208.808594 41.425781 208.109375 41.785156 207.773438 41.785156 C 207.472656 41.785156 207.328125 41.515625 207.328125 40.984375 C 207.402344 40.863281 207.5625 40.691406 207.800781 40.464844 C 208.890625 39.40625 209.746094 37.988281 210.367188 36.226563 C 210.980469 34.554688 212.085938 30.574219 213.667969 24.289063 L 215.820313 17.476563 L 215.210938 18.535156 C 214.257813 20.476563 213.210938 22.878906 212.078125 25.71875 C 210.652344 29.273438 209.398438 31.976563 208.320313 33.820313 C 207.230469 35.664063 205.941406 37.292969 204.433594 38.695313 C 201.972656 41.011719 199.476563 42.167969 196.949219 42.167969 C 195.285156 42.167969 193.917969 41.695313 192.847656 40.757813 C 191.773438 39.8125 191.242188 38.574219 191.242188 37.039063 C 191.242188 36.152344 191.445313 35.402344 191.839844 34.773438 C 192.246094 34.140625 192.757813 33.835938 193.371094 33.835938 C 194.355469 33.835938 194.847656 34.457031 194.847656 35.71875 C 194.847656 36.308594 194.691406 36.835938 194.382813 37.285156 C 194.078125 37.726563 193.703125 37.953125 193.257813 37.953125 L 192.300781 36.632813 L 192.351563 37.082031 C 192.351563 38.15625 192.773438 39.046875 193.613281 39.761719 C 194.460938 40.464844 195.578125 40.824219 196.964844 40.824219 C 199.851563 40.824219 202.6875 38.851563 205.476563 34.90625 C 206.617188 33.28125 207.578125 31.710938 208.355469 30.203125 C 209.144531 28.699219 210.90625 25.261719 213.652344 19.898438 C 214.335938 17.808594 215.324219 15.835938 216.628906 13.988281 C 217.925781 12.144531 218.894531 11.222656 219.53125 11.222656 C 219.855469 11.222656 220.011719 11.433594 220.011719 11.851563 C 219.972656 12.015625 219.929688 12.160156 219.855469 12.28125 C 218.820313 13.757813 217.882813 16.570313 217.058594 20.726563 C 215.765625 26.972656 214.492188 31.59375 213.238281 34.59375 L 210.214844 38.964844 L 210.605469 38.648438 C 211.746094 37.609375 212.835938 36.296875 213.855469 34.726563 C 214.882813 33.160156 216.75 29.933594 219.464844 25.050781 C 221.398438 21.574219 222.945313 19.015625 224.089844 17.386719 C 225.230469 15.761719 226.6875 14.296875 228.457031 12.992188 C 230.300781 11.101563 232.355469 10.148438 234.613281 10.148438 Z M 206.746094 8.515625 C 207.953125 8.515625 208.910156 8.925781 209.617188 9.746094 C 210.320313 10.570313 210.675781 11.679688 210.675781 13.082031 C 210.675781 14.101563 210.253906 15.707031 209.414063 17.90625 C 209.273438 18.347656 209.203125 18.746094 209.203125 19.089844 C 209.203125 19.929688 209.558594 20.34375 210.246094 20.34375 C 210.726563 20.34375 211.289063 20.019531 211.933594 19.367188 C 212.578125 18.722656 213.097656 17.914063 213.496094 16.9375 C 213.613281 16.621094 213.773438 16.464844 213.972656 16.464844 C 214.304688 16.464844 214.46875 16.675781 214.46875 17.09375 C 214.46875 17.546875 214.109375 18.289063 213.398438 19.335938 C 212.347656 20.890625 211.3125 21.671875 210.285156 21.671875 C 209.558594 21.671875 208.941406 21.316406 208.445313 20.628906 C 207.953125 19.929688 207.703125 19.082031 207.703125 18.085938 C 207.703125 17.15625 207.945313 16.066406 208.4375 14.808594 C 208.996094 13.375 209.273438 12.390625 209.273438 11.851563 C 209.273438 11.253906 209.039063 10.757813 208.574219 10.359375 C 208.109375 9.96875 207.464844 9.765625 206.640625 9.765625 C 204.203125 9.765625 201.898438 11.074219 199.730469 13.683594 C 197.570313 16.285156 196.484375 19.039063 196.484375 21.933594 C 196.484375 23.402344 196.820313 24.578125 197.488281 25.472656 C 198.15625 26.371094 199.011719 26.824219 200.0625 26.824219 C 201.027344 26.824219 202.019531 26.453125 203.023438 25.71875 C 204.035156 24.992188 204.839844 24.0625 205.445313 22.945313 C 205.582031 22.703125 205.714844 22.585938 205.851563 22.585938 C 206.1875 22.585938 206.355469 22.800781 206.355469 23.238281 C 206.355469 23.664063 205.941406 24.355469 205.117188 25.292969 C 203.558594 27.144531 201.847656 28.074219 199.996094 28.074219 C 198.667969 28.074219 197.585938 27.503906 196.746094 26.371094 C 195.898438 25.238281 195.480469 23.769531 195.480469 21.976563 C 195.480469 18.601563 196.65625 15.519531 199.011719 12.714844 C 201.359375 9.917969 203.9375 8.515625 206.746094 8.515625 Z M 206.746094 8.515625 "/>
</g>
</g>
</svg>
