<?xml version="1.0" encoding="UTF-8"?>
<svg xmlns="http://www.w3.org/2000/svg" xmlns:xlink="http://www.w3.org/1999/xlink" width="67.5pt" height="67.5pt" viewBox="0 0 67.5 67.5" version="1.1">
<defs>
<clipPath id="clip1">
  <path d="M 0 0 L 67.5 0 L 67.5 67.5 L 0 67.5 Z M 0 0 "/>
</clipPath>
<filter id="alpha" filterUnits="objectBoundingBox" x="0%" y="0%" width="100%" height="100%">
  <feColorMatrix type="matrix" in="SourceGraphic" values="0 0 0 0 1 0 0 0 0 1 0 0 0 0 1 0 0 0 1 0"/>
</filter>
<mask id="mask0">
  <g filter="url(#alpha)">
<rect x="0" y="0" width="67.5" height="67.5" style="fill:rgb(100%,100%,100%);fill-opacity:0.83;stroke:none;"/>
  </g>
</mask>
<clipPath id="clip2">
  <rect width="68" height="68"/>
</clipPath>
<g id="surface1" clip-path="url(#clip2)">
<path style=" stroke:none;fill-rule:nonzero;fill:rgb(78.039216%,89.411765%,99.607843%);fill-opacity:1;" d="M 32.003906 50.9375 C 33.363281 51.875 38.035156 51.441406 40.230469 50.734375 C 61.375 -0.257813 -35.429688 6.679688 32.003906 50.9375 Z M 32.003906 50.9375 "/>
</g>
<mask id="mask1">
  <g filter="url(#alpha)">
<rect x="0" y="0" width="67.5" height="67.5" style="fill:rgb(100%,100%,100%);fill-opacity:0.83;stroke:none;"/>
  </g>
</mask>
<clipPath id="clip3">
  <rect width="68" height="68"/>
</clipPath>
<g id="surface2" clip-path="url(#clip3)">
<path style=" stroke:none;fill-rule:nonzero;fill:rgb(98.823529%,85.490196%,59.607843%);fill-opacity:1;" d="M 32.238281 51.074219 C 33.746094 51.777344 39.1875 51.6875 41.335938 50.089844 C 93.925781 0.988281 -0.792969 1.777344 32.238281 51.074219 Z M 32.238281 51.074219 "/>
</g>
</defs>
<g id="surface0">
<g clip-path="url(#clip1)" clip-rule="nonzero">
<use xlink:href="#surface1" mask="url(#mask0)"/>
<use xlink:href="#surface2" mask="url(#mask1)"/>
</g>
</g>
</svg>
